<?xml version="1.0" encoding="UTF-8" standalone="no"?>
<!DOCTYPE svg PUBLIC "-//W3C//DTD SVG 1.1//EN"
 "http://www.w3.org/Graphics/SVG/1.1/DTD/svg11.dtd">
<!-- Generated by graphviz version 2.40.1 (20161225.0304)
 -->
<!-- Title: models_diagram Pages: 1 -->
<svg width="539pt" height="246pt"
 viewBox="0.00 0.00 539.19 246.00" xmlns="http://www.w3.org/2000/svg" xmlns:xlink="http://www.w3.org/1999/xlink">
<g id="graph0" class="graph" transform="scale(1 1) rotate(0) translate(4 242)">
<title>models_diagram</title>
<polygon fill="transparent" stroke="transparent" points="-4,4 -4,-242 535.1931,-242 535.1931,4 -4,4"/>
<!-- _diagram_info -->
<g id="node1" class="node">
<title>_diagram_info</title>
<text text-anchor="start" x="8" y="-216.6" font-family="Times,serif" font-size="13.00" fill="#000000">Models diagram</text>
<text text-anchor="start" x="8" y="-203.6" font-family="Times,serif" font-size="13.00" fill="#000000">Date: Jul 14 2017 &#45; 20:01</text>
<text text-anchor="start" x="8" y="-190.6" font-family="Times,serif" font-size="13.00" fill="#000000">Migration version: 20170714234747</text>
<text text-anchor="start" x="8" y="-177.6" font-family="Times,serif" font-size="13.00" fill="#000000">Generated by RailRoady 1.5.3</text>
<text text-anchor="start" x="8" y="-164.6" font-family="Times,serif" font-size="13.00" fill="#000000">http://railroady.prestonlee.com</text>
</g>
<!-- ApplicationRecord -->
<g id="node2" class="node">
<title>ApplicationRecord</title>
<ellipse fill="none" stroke="#000000" cx="302.6877" cy="-194.5" rx="77.2916" ry="18"/>
<text text-anchor="middle" x="302.6877" y="-190.3" font-family="Times,serif" font-size="14.00" fill="#000000">ApplicationRecord</text>
</g>
<!-- Category -->
<g id="node3" class="node">
<title>Category</title>
<path fill="none" stroke="#000000" d="M410.1824,-151.5C410.1824,-151.5 519.1931,-151.5 519.1931,-151.5 525.1931,-151.5 531.1931,-157.5 531.1931,-163.5 531.1931,-163.5 531.1931,-225.5 531.1931,-225.5 531.1931,-231.5 525.1931,-237.5 519.1931,-237.5 519.1931,-237.5 410.1824,-237.5 410.1824,-237.5 404.1824,-237.5 398.1824,-231.5 398.1824,-225.5 398.1824,-225.5 398.1824,-163.5 398.1824,-163.5 398.1824,-157.5 404.1824,-151.5 410.1824,-151.5"/>
<text text-anchor="middle" x="464.6877" y="-222.3" font-family="Times,serif" font-size="14.00" fill="#000000">Category</text>
<polyline fill="none" stroke="#000000" points="398.1824,-215.5 531.1931,-215.5 "/>
<text text-anchor="start" x="406.1824" y="-200.3" font-family="Times,serif" font-size="14.00" fill="#000000">id :INTEGER</text>
<text text-anchor="start" x="406.1824" y="-186.3" font-family="Times,serif" font-size="14.00" fill="#000000">name :varchar</text>
<text text-anchor="start" x="406.1824" y="-172.3" font-family="Times,serif" font-size="14.00" fill="#000000">created_at :datetime</text>
<text text-anchor="start" x="406.1824" y="-158.3" font-family="Times,serif" font-size="14.00" fill="#000000">updated_at :datetime</text>
</g>
<!-- Product -->
<g id="node4" class="node">
<title>Product</title>
<path fill="none" stroke="#000000" d="M410.1824,-.5C410.1824,-.5 519.1931,-.5 519.1931,-.5 525.1931,-.5 531.1931,-6.5 531.1931,-12.5 531.1931,-12.5 531.1931,-102.5 531.1931,-102.5 531.1931,-108.5 525.1931,-114.5 519.1931,-114.5 519.1931,-114.5 410.1824,-114.5 410.1824,-114.5 404.1824,-114.5 398.1824,-108.5 398.1824,-102.5 398.1824,-102.5 398.1824,-12.5 398.1824,-12.5 398.1824,-6.5 404.1824,-.5 410.1824,-.5"/>
<text text-anchor="middle" x="464.6877" y="-99.3" font-family="Times,serif" font-size="14.00" fill="#000000">Product</text>
<polyline fill="none" stroke="#000000" points="398.1824,-92.5 531.1931,-92.5 "/>
<text text-anchor="start" x="406.1824" y="-77.3" font-family="Times,serif" font-size="14.00" fill="#000000">id :INTEGER</text>
<text text-anchor="start" x="406.1824" y="-63.3" font-family="Times,serif" font-size="14.00" fill="#000000">name :varchar</text>
<text text-anchor="start" x="406.1824" y="-49.3" font-family="Times,serif" font-size="14.00" fill="#000000">price :integer</text>
<text text-anchor="start" x="406.1824" y="-35.3" font-family="Times,serif" font-size="14.00" fill="#000000">category_id :integer</text>
<text text-anchor="start" x="406.1824" y="-21.3" font-family="Times,serif" font-size="14.00" fill="#000000">created_at :datetime</text>
<text text-anchor="start" x="406.1824" y="-7.3" font-family="Times,serif" font-size="14.00" fill="#000000">updated_at :datetime</text>
</g>
<!-- Category&#45;&gt;Product -->
<g id="edge1" class="edge">
<title>Category&#45;&gt;Product</title>
<path fill="none" stroke="#ad6615" d="M464.6877,-143.1132C464.6877,-137.1547 464.6877,-131.0117 464.6877,-124.8805"/>
<ellipse fill="none" stroke="#ad6615" cx="464.6878" cy="-147.1523" rx="4" ry="4"/>
<polygon fill="#ad6615" stroke="#ad6615" points="464.6878,-124.6083 469.1877,-114.6082 464.6878,-119.6083 464.6877,-114.6083 464.6877,-114.6083 464.6877,-114.6083 464.6878,-119.6083 460.1877,-114.6083 464.6878,-124.6083 464.6878,-124.6083"/>
</g>
</g>
</svg>
